<svg version="1.1" id="Layer_1" xmlns="http://www.w3.org/2000/svg" xmlns:xlink="http://www.w3.org/1999/xlink" x="0px" y="0px" width="16px" height="16px" viewBox="0 0 612 612" enable-background="new 0 0 612 612" xml:space="preserve" fill="currentColor"><g transform="matrix(14.99999 0 0 14.99999 -1603.998 -3823.9962)"></g><path d="M557.018,198.413H413.581V54.979c0-19.804-16.054-35.861-35.861-35.861H234.282c-19.807,0-35.861,16.057-35.861,35.861	v143.434H54.987c-19.807,0-35.861,16.057-35.861,35.861v143.438c0,19.807,16.057,35.861,35.861,35.861h143.434v143.438	c0,19.807,16.057,35.861,35.861,35.861H377.72c19.807,0,35.861-16.057,35.861-35.861V413.573h143.438	c19.804,0,35.858-16.054,35.861-35.861V234.274C592.88,214.467,576.822,198.413,557.018,198.413z"></path></svg>